PathFileType	4	(X/Y/Z)	D:\TRACE\spotREDO_2-26-24\spot_Both_Motion_3_5-platform.trc
DataRate	CameraRate	NumFrames	NumMarkers	Units	OrigDataRate	OrigDataStartFrame	OrigNumFrames
100.00	100.00	      61	5	mm	100.00	876	      7000
Frame#	Time	Left_Front			Right_Front			Left_Aft			Right_Aft			Post			
		X1	Y1	Z1	X2	Y2	Z2	X3	Y3	Z3	X4	Y4	Z4	X5	Y5	Z5	

876	8.750	-695.80463	-36.01613	-583.12488	718.75116	-22.96908	-498.36060	-767.92023	36.78683	633.25433	801.32568	43.84237	638.73724	-1.39449	567.25214	-1022.77673	
877	8.760	-695.71387	-36.07395	-583.12958	719.12793	-23.06975	-498.40222	-767.75043	36.80307	633.22900	801.66394	43.90515	638.67853	-1.12520	566.68732	-1022.99292	
878	8.770	-695.50690	-36.14228	-583.20581	719.20996	-23.00655	-498.56516	-767.56152	36.96301	633.18890	801.86743	44.08307	638.58221	-0.99809	566.48773	-1023.06921	
879	8.780	-695.23932	-36.17721	-583.23035	719.62439	-23.18598	-498.32025	-767.29822	37.22041	633.19128	802.14203	44.47861	638.53644	-0.74420	566.31689	-1023.16980	
880	8.790	-694.99896	-36.31348	-583.32330	719.93274	-23.25446	-498.29166	-767.05780	37.39082	633.12952	802.45544	44.66436	638.49396	-0.52079	566.18951	-1023.07330	
881	8.800	-694.80035	-36.49117	-583.27661	719.92963	-23.20684	-498.33517	-766.87299	37.48608	633.08630	802.80048	44.76120	638.48212	-0.39031	565.94745	-1023.08722	
882	8.810	-694.41895	-36.87453	-583.25586	720.15088	-23.32332	-498.45758	-766.67139	37.57717	633.04608	803.02118	44.80951	638.32104	-0.12147	565.70099	-1023.07806	
883	8.820	-694.23578	-37.02901	-583.25592	720.11633	-23.43877	-498.66696	-766.46796	37.76488	633.06659	803.26514	44.93470	638.21552	0.17868	565.47412	-1023.24780	
884	8.830	-694.00488	-37.13801	-583.28424	720.40594	-23.65286	-498.58313	-766.18970	37.88255	633.07477	803.44373	45.33049	638.15851	0.11169	565.38739	-1023.41620	
885	8.840	-693.73004	-37.24076	-583.38684	720.54541	-23.71852	-498.63089	-766.03784	38.08361	633.00024	803.49115	45.57233	638.18634	0.41213	564.90332	-1023.92407	
886	8.850	-693.64343	-37.38416	-583.40094	720.71698	-23.97781	-498.70084	-765.83362	38.26384	632.98926	803.53625	45.65183	638.15277	0.75631	564.50464	-1024.45459	
887	8.860	-693.39484	-37.60999	-583.46460	721.12677	-24.33309	-498.70660	-765.67139	38.32613	632.89990	803.66339	45.73918	638.11481	1.02116	564.35657	-1024.70325	
888	8.870	-693.20148	-37.81102	-583.59473	721.23029	-24.29765	-498.75473	-765.43011	38.47234	632.84485	803.83258	45.81608	638.04443	1.79600	564.11780	-1024.61060	
889	8.880	-693.09845	-37.85055	-583.63971	721.50507	-24.44550	-498.80008	-765.06976	38.72742	632.80365	804.09979	45.90013	637.95990	1.93986	563.83923	-1024.93359	
890	8.890	-692.95807	-37.93210	-583.62988	721.78839	-24.49888	-498.73160	-764.83704	38.92314	632.72894	804.42230	46.07590	637.91437	2.05011	563.61188	-1025.00427	
891	8.900	-692.93872	-37.90966	-583.69843	722.00647	-24.51000	-498.69055	-764.65991	39.00681	632.73553	804.62402	46.38174	637.93591	1.66232	563.50494	-1025.27295	
892	8.910	-692.75403	-38.07545	-583.68939	722.33966	-24.82962	-498.74530	-764.77759	39.08723	632.55634	804.72858	46.38717	637.91736	1.72582	563.31921	-1025.21130	
893	8.920	-692.55255	-38.32146	-583.69275	722.35675	-25.00650	-498.86841	-764.54822	39.13921	632.53766	805.07190	46.51033	638.08716	1.93236	563.10394	-1025.12610	
894	8.930	-692.33020	-38.42798	-583.74176	722.33514	-24.90499	-498.94217	-764.36896	39.32516	632.43335	805.20264	46.58455	638.09277	2.17527	562.83209	-1025.16956	
895	8.940	-692.18085	-38.42159	-583.74683	722.53644	-24.86922	-498.91339	-764.22858	39.44042	632.36926	805.48584	46.79090	638.13605	2.36739	562.66968	-1025.19348	
896	8.950	-691.95691	-38.58134	-583.67432	722.72778	-24.89675	-498.86084	-764.25000	39.43636	632.36194	805.60614	46.81406	638.17578	2.49913	562.57898	-1025.21655	
897	8.960	-691.74341	-38.66174	-583.66437	722.77344	-24.89944	-498.85480	-764.30524	39.50664	632.44873	805.61340	46.83629	638.04382	2.61001	562.48694	-1025.30493	
898	8.970	-691.46240	-38.82199	-583.73499	723.13593	-25.22388	-498.82672	-763.99158	39.33704	632.25427	805.80353	46.95749	637.88855	2.82456	562.28851	-1025.64856	
899	8.980	-691.22400	-38.86318	-583.82642	723.21375	-25.32539	-498.92706	-763.72247	39.39281	632.15710	805.96002	46.98519	637.80188	2.94469	562.17847	-1025.86108	
900	8.990	-691.12323	-38.87318	-583.83966	723.35980	-25.34722	-498.91391	-763.36841	39.62513	632.24194	806.04651	46.98236	637.78815	3.22813	562.06152	-1026.08789	
901	9.000	-691.02161	-38.95426	-583.87982	723.41534	-25.39434	-498.95837	-763.21893	39.63992	632.26691	806.15503	47.10953	637.67963	3.30603	561.95386	-1026.29224	
902	9.010	-690.99359	-39.01197	-583.79626	723.51953	-25.47932	-498.97736	-763.08582	39.73354	632.34778	806.23297	47.22443	637.68933	3.32392	561.90955	-1026.50220	
903	9.020	-690.93549	-39.03976	-583.82971	723.45306	-25.37610	-499.00455	-763.10083	39.93878	632.32855	806.22144	47.26601	637.67902	3.40609	561.81934	-1026.62805	
904	9.030	-690.85284	-39.04012	-583.86072	723.56335	-25.27715	-498.98181	-762.96381	39.91351	632.24286	806.35913	47.26163	637.64868	3.58500	561.70795	-1026.70264	
905	9.040	-690.80988	-39.07331	-583.87207	723.70435	-25.35957	-499.18115	-762.88397	39.92863	632.23120	806.51984	47.24780	637.62622	3.72934	561.61932	-1026.64136	
906	9.050	-690.71893	-39.02800	-583.81378	723.85730	-25.37904	-499.16446	-762.75952	39.94540	632.22943	806.54675	47.26429	637.65143	3.88228	561.55237	-1026.56299	
907	9.060	-690.65717	-39.02294	-583.78595	723.97034	-25.36984	-499.15479	-762.68787	39.98039	632.24854	806.66339	47.33403	637.70154	3.98168	561.51288	-1026.45422	
908	9.070	-690.61255	-38.97687	-583.83673	724.11127	-25.43270	-499.13797	-762.55841	39.99047	632.24695	806.74463	47.38512	637.76678	4.12002	561.53851	-1026.32458	
909	9.080	-690.56390	-38.96150	-583.84644	724.25146	-25.42689	-499.10904	-762.52185	39.99286	632.25427	806.79041	47.32061	637.75067	4.17410	561.56085	-1026.26318	
910	9.090	-690.43652	-39.00074	-583.89374	724.24591	-25.39271	-499.20325	-762.41498	40.07635	632.35791	806.87305	47.27694	637.72699	4.25689	561.57806	-1026.22656	
911	9.100	-690.31836	-39.00716	-583.87946	724.25409	-25.67963	-499.12811	-762.33777	39.99883	632.38318	806.81030	47.18962	637.69604	4.26843	561.64081	-1026.09033	
912	9.110	-690.26282	-38.92226	-583.82806	724.46149	-25.80056	-499.24979	-762.35852	39.85499	632.26294	806.96124	47.23432	637.76166	4.33335	561.74677	-1026.13391	
913	9.120	-690.23309	-38.86490	-583.83850	724.53156	-25.82039	-499.20892	-762.25629	39.82564	632.29974	807.00861	47.23293	637.78394	4.40345	561.82605	-1026.02527	
914	9.130	-690.18677	-38.83853	-583.80737	724.62170	-25.77638	-499.16412	-762.23962	39.83533	632.30292	807.09393	47.26399	637.81110	4.50965	561.90509	-1025.97229	
915	9.140	-690.06342	-38.89537	-583.80554	724.69489	-25.61518	-499.18140	-762.26508	39.74309	632.30487	807.10242	47.18805	637.77234	4.57457	561.95551	-1025.95532	
916	9.150	-690.03180	-38.90161	-583.77802	724.86975	-25.59996	-499.13080	-762.14520	39.66046	632.30157	807.23004	47.10568	637.73962	4.54598	561.97809	-1025.93103	
917	9.160	-689.96533	-38.86633	-583.80957	724.81787	-25.47797	-499.16336	-762.10327	39.59630	632.29236	807.16406	47.08701	637.75403	4.63729	562.01782	-1025.95300	
918	9.170	-689.97968	-38.77980	-583.76563	724.85999	-25.41949	-499.17169	-762.11914	39.59278	632.34814	807.17615	47.12986	637.79291	4.60725	562.13275	-1025.91382	
919	9.180	-690.02496	-38.69726	-583.77197	724.81329	-25.31861	-499.21579	-762.14532	39.56374	632.34827	807.14703	47.13671	637.83502	4.66209	562.26093	-1025.88293	
920	9.190	-689.94067	-38.63589	-583.70624	724.74854	-25.29848	-499.14691	-762.11560	39.41331	632.39807	807.10352	46.98514	637.75793	4.70570	562.34467	-1025.78845	
921	9.200	-689.86761	-38.68540	-583.66998	724.71478	-25.30503	-499.04224	-762.06238	39.29077	632.43054	807.11481	46.89065	637.70618	4.65096	562.51617	-1025.64685	
922	9.210	-689.83838	-38.55715	-583.71820	724.65625	-25.16669	-499.03952	-761.99707	39.14906	632.49414	807.11426	46.81873	637.66962	4.69053	562.64044	-1025.52979	
923	9.220	-689.78314	-38.50722	-583.68384	724.62134	-25.09779	-499.05008	-762.00659	39.06860	632.54645	807.12433	46.74505	637.70135	4.95018	562.69849	-1025.35510	
924	9.230	-689.80011	-38.37372	-583.59021	724.69861	-25.01506	-498.97443	-761.98279	38.94629	632.60950	807.22314	46.58225	637.79755	4.81321	563.03632	-1025.42493	
925	9.240	-689.75146	-38.27398	-583.52191	724.65570	-24.89479	-498.97595	-761.92487	38.83693	632.65991	807.24786	46.47320	637.87738	4.82672	563.33624	-1025.24316	
926	9.250	-689.79456	-38.15203	-583.47162	724.73444	-24.77598	-498.91400	-762.00323	38.76521	632.70007	807.25677	46.30004	638.01782	4.55040	563.75189	-1025.06018	
927	9.260	-689.78082	-37.94937	-583.40594	724.75433	-24.60035	-498.94516	-762.01941	38.71120	632.69727	807.30469	46.09784	638.04431	4.44897	563.87378	-1025.00562	
928	9.270	-689.77826	-37.86707	-583.40314	724.69623	-24.29306	-498.92410	-762.02100	38.62153	632.74951	807.42883	45.86905	638.12494	4.35798	563.98981	-1024.84949	
929	9.280	-689.81024	-37.77440	-583.38208	724.47015	-23.95731	-498.85846	-762.09943	38.49351	632.73981	807.38855	45.91334	638.18341	4.31395	564.16205	-1024.57129	
930	9.290	-689.82104	-37.53800	-583.35229	724.56403	-23.76140	-498.71820	-762.11218	38.43626	632.75568	807.49438	45.66721	638.28729	4.61159	564.57849	-1024.01538	
931	9.300	-689.81165	-37.28816	-583.35706	724.54492	-23.65931	-498.75357	-762.26062	38.12893	632.72113	807.50311	45.34776	638.43396	4.67189	565.04126	-1023.84204	
932	9.310	-689.91571	-36.97512	-583.30750	724.38147	-23.33184	-498.87021	-762.24005	37.77193	632.78094	807.49005	45.15870	638.43408	4.42683	565.54205	-1023.65509	
933	9.320	-689.96869	-36.69939	-583.31311	724.51794	-23.18439	-498.71194	-762.08331	37.36811	633.06476	807.44458	44.90649	638.44171	4.24975	565.79633	-1023.62177	
934	9.330	-690.03558	-36.51011	-583.29364	724.65942	-23.19615	-498.61276	-762.04272	37.29871	633.10522	807.32629	44.75277	638.51752	4.19163	566.27338	-1023.36212	
935	9.340	-690.07190	-36.29649	-583.30383	724.77161	-23.06900	-498.66888	-762.04547	37.06126	633.18024	807.24481	44.67096	638.55377	4.25246	566.65546	-1023.01501	
936	9.350	-690.11774	-36.03191	-583.14807	724.73535	-22.88022	-498.58575	-762.11090	36.79887	633.26080	807.07819	44.43684	638.58594	4.40148	566.82990	-1022.86566	
